<svg xmlns="http://www.w3.org/2000/svg" width="20.0" height="20.0" viewBox="0 0 256.0 256.0">
  <g transform="translate(25.6,25.6) scale(0.8,0.8)">
    <g transform="scale(9.84615,9.84615)">
      <path d="M6,1c-1.27734,0 -2.71875,0.35938 -3.90625,1.25c-1.1875,0.89063 -2.0625,2.39063 -2.0625,4.34375c0,3.41797 2.375,5.40625 2.375,5.40625c0.03906,0.03516 0.08203,0.06641 0.125,0.09375l4.0625,2.46875c-0.24609,4.40234 -5.19922,4.32422 -6.4375,4.375c0,0 2.15625,1.24609 4.09375,1.15625c-0.76562,1.39844 -3.25,2.90625 -3.25,2.90625c2.74219,0 8.85547,-0.57812 8.90625,-5.75l0.40625,0.375l5.9375,5.46875c0.14844,0.13281 0.33203,0.22266 0.53125,0.25c0.00391,0.00391 0.02734,-0.00391 0.03125,0c0.21484,0.20703 0.36328,0.53125 0.59375,0.6875c1.26953,0.85156 2.58203,1 3.28125,1c0.67969,0 1.88281,-0.10937 3.0625,-0.8125c1.17969,-0.70312 2.25,-2.13281 2.25,-4.21875c0,-1.54297 -0.60547,-2.70703 -1.46875,-3.3125c-0.86328,-0.60547 -1.83203,-0.6875 -2.53125,-0.6875c-0.87891,0 -1.78906,0.19531 -2.5625,0.65625c-0.77344,0.46094 -1.4375,1.31641 -1.4375,2.375c0,1.38672 0.82422,2.36328 1.59375,2.71875c0.76953,0.35547 1.46875,0.28125 1.46875,0.28125c0.55078,-0.03516 0.97266,-0.51172 0.9375,-1.0625c-0.03516,-0.55078 -0.51172,-0.97266 -1.0625,-0.9375c0,0 -0.30078,0.01172 -0.53125,-0.09375c-0.23047,-0.10547 -0.40625,-0.14062 -0.40625,-0.90625c0,-0.28516 0.10156,-0.4375 0.46875,-0.65625c0.36719,-0.21875 0.97266,-0.375 1.53125,-0.375c0.48828,0 1.03516,0.10547 1.375,0.34375c0.33984,0.23828 0.625,0.57422 0.625,1.65625c0,1.47656 -0.57031,2.07813 -1.28125,2.5c-0.71094,0.42188 -1.64844,0.53125 -2.03125,0.53125c-0.36328,0 -1.36719,-0.125 -2.15625,-0.65625c-0.78906,-0.53125 -1.5,-1.37891 -1.5,-3.34375c0,-1.83203 1.38281,-3.03125 2.96875,-3.875c1.58594,-0.84375 3.1875,-1.1875 3.1875,-1.1875c0.40234,-0.08984 0.71094,-0.41797 0.77344,-0.82422c0.0625,-0.41016 -0.13281,-0.8125 -0.49219,-1.01953l-10.75,-5.5c-0.26953,-0.19531 -0.52734,-0.41406 -0.8125,-0.65625c-0.0625,-0.05078 -0.125,-0.07031 -0.1875,-0.125l-5.0625,-4.59375c-0.17969,-0.16016 -0.41406,-0.25 -0.65625,-0.25zM5.71875,3.09375l3.90625,3.5c-2.46484,1.33594 -3.0625,3.75391 -3.15625,5.5625l-2.78125,-1.6875l-0.03125,-0.03125c-0.05469,-0.04687 -1.625,-1.375 -1.625,-3.84375c0,-1.39844 0.53125,-2.1875 1.28125,-2.75c0.67188,-0.50391 1.57813,-0.69922 2.40625,-0.75zM12.8125,8.90625l7.71875,3.9375c-0.62109,0.21484 -0.72656,0.13672 -1.46875,0.53125c-1.89453,1.00781 -4.03125,2.82813 -4.03125,5.65625c0,0.11328 0.05859,0.17188 0.0625,0.28125l-5.28125,-4.84375c-0.02344,-3.11328 1.55469,-4.73828 3,-5.5625z" fill="#fa5252"/>
    </g>
  </g>
</svg>
