<svg xmlns="http://www.w3.org/2000/svg" width="133.51999" height="48.0" viewBox="0 0 439.49 157.99">
  <path d="M132.4,157.99l19.21,0l50.53,-122l-19.21,0l-23.83,59.06l-23.82,-59.06l-19.22,0l33.71,81.37l-17.37,40.63z" fill="#000000"/>
  <path d="M415.69,95.69c-4.95,6.27 -12.61,10.31 -21.2,10.31 -12.58,0 -23.18,-8.65 -26.16,-20.31h70.66c0.33,-2.18 0.5,-4.42 0.5,-6.69 0,-24.81 -20.19,-45 -45,-45s-45,20.19 -45,45 20.19,45 45,45c18.92,0 35.13,-11.74 41.78,-28.31h-20.58ZM394.49,52c11.24,0 20.89,6.9 24.95,16.69h-49.9c4.06,-9.79 13.71,-16.69 24.95,-16.69Z" fill="#000000"/>
  <path d="M0,27V122H18v-50h50v-18H18V27c0,-4.97 4.03,-9 9,-9h47V0H27C12.09,0 0,12.09 0,27Z" fill="#000000"/>
  <path d="M88,0h18v122h-18z" fill="#000000"/>
  <path d="M302.49,34.08c-10.75,0 -20.41,4.74 -27.01,12.24 -5.61,-7.43 -14.51,-12.24 -24.53,-12.24 -7.86,0 -15.02,2.95 -20.45,7.81v-5.89h-18V122.08h18v-52c0,-9.92 8.07,-18 18,-18s18,8.08 18,18v52h18v-52c0,-9.92 8.07,-18 18,-18s18,8.08 18,18v52h18v-52c0,-19.85 -16.15,-36 -36,-36Z" fill="#000000"/>
</svg>
