<svg xmlns="http://www.w3.org/2000/svg" width="40.0" height="40.0" viewBox="0 0 24.0 24.0">
  <g transform="translate(4.5,4.5) scale(0.58,0.58)">
    <path d="M10,7.6v1.8h7.7V7.6H10zM10.6,11.2v6.5h2.3c0,-0.6 0.1,-1.2 0.3,-1.7h-0.8v-3.2h2.9v0.6c0.5,-0.3 1.1,-0.5 1.7,-0.6c0,-0.9 0,-1.6 0,-1.6H10.6z" fill="#000000"/>
    <path d="M9.2,15.8c-0.5,0.6 -1,1.1 -1.5,1.6V9.2H3.2V11h2.7v7.2c0,0.4 -0.2,0.7 -0.5,1l0.7,1.7C7.3,20 8.5,19 9.7,17.8L9.2,15.8zM5.8,3.5L4.5,4.7c1.4,1.1 2.5,2 3.3,3L9,6.4C8.1,5.4 7,4.5 5.8,3.5zM9.6,4v1.7h9.1v7.1c0.6,0.1 1.3,0.3 1.8,0.7V4H9.6z" fill="#000000"/>
    <path d="M21.9,17.7c0,2.2 -1.8,4 -4,4s-4,-1.8 -4,-4c0,-0.5 0.1,-0.9 0.2,-1.4c0.3,-0.9 0.9,-1.6 1.7,-2.1c0.4,-0.3 0.9,-0.4 1.4,-0.5c0.2,0 0.5,-0.1 0.7,-0.1c0.2,0 0.4,0 0.7,0.1c0.5,0.1 1,0.3 1.4,0.5C21.1,15 21.9,16.3 21.9,17.7zM15.5,18.5l1.8,1.5l2.9,-3.3l-0.7,-0.6l-2.3,2.7l-1.1,-0.9L15.5,18.5z" fill="#000000"/>
  </g>
</svg>
