<svg xmlns="http://www.w3.org/2000/svg" width="16.0" height="16.0" viewBox="0 0 16.0 16.0">
  <g>
    <defs>
      <clipPath id="clip_1">
        <path d="M0,0h16v16h-16z"/>
      </clipPath>
    </defs>
    <g>
      <defs>
        <clipPath id="clip_2">
          <path d="M0,0h16v16h-16z"/>
        </clipPath>
      </defs>
      <defs>
        <linearGradient id="bagBody" x1="3.409" y1="0.08" x2="6.527" y2="14.472" gradientUnits="userSpaceOnUse">
          <stop offset="0.271" stop-color="#FFFFFF"/>
          <stop offset="1.0" stop-color="#DFDFDF"/>
        </linearGradient>
        <linearGradient id="handleStroke" x1="4" y1="0" x2="11" y2="2.5" gradientUnits="userSpaceOnUse">
          <stop offset="0" stop-color="#30DAFF"/>
          <stop offset="1" stop-color="#0094D4"/>
        </linearGradient>
        <linearGradient id="handleFill" x1="4" y1="0" x2="11" y2="1" gradientUnits="userSpaceOnUse">
          <stop offset="0" stop-color="#22BCFF"/>
          <stop offset="1" stop-color="#0088F0"/>
        </linearGradient>
      </defs>
      <path d="M0,3C0,2.448 0.448,2 1,2H14C14.552,2 15,2.448 15,3V12C15,13.657 13.657,15 12,15H3C1.343,15 0,13.657 0,12V3Z" fill="url(#bagBody)"/>
      <path d="M3.667,4L11.333,4A0.667,0.667 0,0 1,12 4.667L12,12.333A0.667,0.667 0,0 1,11.333 13L3.667,13A0.667,0.667 0,0 1,3 12.333L3,4.667A0.667,0.667 0,0 1,3.667 4z" fill="#ffffff" fill-opacity="0.5"/>
      <path d="M7,5H4V8H7V5Z" fill="#f25022"/>
      <path d="M11,5H8V8H11V5Z" fill="#7fba00"/>
      <path d="M11,9H8V12H11V9Z" fill="#ffb900"/>
      <path d="M7,9H4V12H7V9Z" fill="#00a4ef"/>
      <path d="M3.5,2.5V1C3.5,0.724 3.724,0.5 4,0.5H11C11.276,0.5 11.5,0.724 11.5,1V2.5" fill="#000000" fill-opacity="0.000" stroke="url(#handleStroke)" stroke-width="1.0" stroke-linecap="round"/>
      <path d="M4,0h7v1h-7z" fill="url(#handleFill)"/>
      <g>
        <defs>
          <clipPath id="clip_3">
            <path d="M4,0h7v1h-7z"/>
          </clipPath>
        </defs>
        <path d="M3,0h1v3h-1z" fill="url(#handleFill)"/>
      </g>
    </g>
  </g>
</svg>
