<svg xmlns="http://www.w3.org/2000/svg" width="56.0" height="58.031677" viewBox="0 0 96.499 100.0">
  <path d="M57.806,0C49.9,0 42.777,3.338 37.76,8.678a27.402,27.402 0,0 1,18.837 -7.469c15.188,0 27.502,12.313 27.502,27.502 0,7.29 -2.84,13.915 -7.469,18.836 5.34,-5.017 8.678,-12.14 8.678,-20.045C85.308,12.313 72.995,0 57.806,0" fill="#ffffff" stroke="#5e97ff" stroke-width="0.0"/>
  <path d="M51.898,71.004a9.273,9.273 0,0 0,-2.397 -1.52c-1.016,-0.438 -2.059,-0.722 -3.181,-0.493 -0.21,0.043 -0.424,0.073 -0.637,0.086 -1.615,0.097 -3.23,0.188 -4.845,0.278 -1.678,0.095 -3.357,0.187 -5.035,0.281 -0.31,0.017 -0.318,0.021 -0.312,-0.293 0.023,-1.189 0.173,-2.367 0.457,-3.521 0.15,-0.609 -0.034,-1.135 -0.24,-1.672 -0.085,-0.22 -0.269,-0.315 -0.505,-0.315 -0.607,0.002 -1.214,0.007 -1.82,-0.002 -0.182,-0.003 -0.24,0.05 -0.229,0.238 0.065,1.06 0.121,2.12 0.176,3.18 0.041,0.771 0.076,1.54 0.113,2.311 0.015,0.314 -0.027,0.27 -0.26,0.29 -0.075,0.007 -0.151,0.018 -0.227,0.022 -1.413,0.079 -2.826,0.165 -4.24,0.235 -1.894,0.094 -3.789,0.161 -5.684,0.203 -0.859,0.019 -1.717,0.05 -2.577,-0.019 -0.707,-0.057 -1.388,-0.229 -2.078,-0.363 -0.47,-0.093 -0.945,-0.175 -1.429,-0.12 -0.29,0.033 -0.339,0.146 -0.272,0.437a0.939,0.939 0,0 0,0.195 0.39c0.142,0.175 0.325,0.336 0.419,0.523 0.151,0.303 0.363,0.315 0.641,0.31 4.094,-0.096 8.189,-0.188 12.284,-0.273 4.158,-0.087 8.315,-0.168 12.474,-0.251 0.076,-0.002 0.152,-0.003 0.227,-0.01 1.286,-0.12 2.558,-0.14 3.785,0.369 0.431,0.179 0.804,0.411 1.09,0.786 0.329,0.433 0.388,0.961 0.504,1.456 0.262,1.107 0.347,2.246 0.45,3.377 0.188,2.053 0.298,4.11 0.374,6.168 0.099,2.666 0.171,5.333 0.18,8v0.343l0.16,-0.145c0,-0.013 -0.005,-0.027 0,-0.036 0.027,-0.051 0.047,-0.14 0.104,-0.126 0.053,0.011 0.053,0.096 0.033,0.156 0.083,0.216 0.06,0.458 0.127,0.7 0.394,-0.334 0.632,-0.715 0.855,-1.31 0.55,-1.465 0.78,-2.989 0.763,-4.543 -0.034,-2.995 -0.113,-5.99 -0.161,-8.985a9.473,9.473 0,0 1,0.46 -3.125c0.116,-0.356 0.265,-0.711 0.578,-0.946 0.265,-0.199 0.362,-0.463 0.355,-0.774 -0.01,-0.541 -0.285,-0.961 -0.675,-1.297" fill="#ffffff" stroke="#5e97ff" stroke-width="0.0"/>
  <path d="M18.065,26.514c-2.284,-1.923 -4.541,-3.828 -6.803,-5.727 -2.267,-1.903 -4.538,-3.8 -6.859,-5.743v0.417c0,1.428 0.008,2.857 -0.007,4.285 -0.003,0.27 0.081,0.431 0.295,0.591 2.593,1.934 5.179,3.876 7.766,5.817 0.14,0.104 0.276,0.212 0.433,0.333 -0.096,0.107 -0.175,0.203 -0.262,0.292 -0.741,0.753 -1.457,1.529 -2.219,2.262 -0.563,0.542 -1.115,1.095 -1.614,1.702 -0.238,0.29 -0.545,0.521 -0.81,0.79 -0.895,0.908 -1.777,1.827 -2.657,2.749 -1.09,1.14 -2.188,2.275 -3.37,3.324 -0.574,0.51 -1.118,1.054 -1.676,1.582 -0.062,0.058 -0.126,0.112 -0.129,0.204 0.155,-0.098 0.316,-0.189 0.465,-0.296 2.011,-1.447 4.02,-2.897 6.031,-4.345 2.072,-1.492 4.146,-2.981 6.218,-4.472 1.442,-1.037 2.885,-2.072 4.324,-3.113 0.288,-0.21 0.601,-0.391 0.874,-0.652" fill="#ffffff" stroke="#5e97ff" stroke-width="0.0"/>
  <path d="M0.151,39.401l0.002,-0.011 -0.008,0.005 0.006,0.006z" fill="#ffffff" stroke="#5e97ff" stroke-width="0.0"/>
  <path d="M18.914,61.707c0.272,0.146 0.567,0.249 0.838,0.385 0.401,0.201 0.793,0.286 1.237,0.275 4.815,-0.12 9.63,-0.229 15.741,-0.372 3.621,-0.081 8.537,-0.193 13.453,-0.3 0.419,-0.009 0.826,-0.096 1.231,-0.17 0.197,-0.037 0.461,-0.134 0.51,-0.39 0.046,-0.239 -0.181,-0.345 -0.332,-0.465a5.206,5.206 0,0 0,-1.396 -0.791c-1.316,-0.503 -2.682,-0.627 -4.075,-0.566 -0.632,0.027 -1.256,0.123 -1.884,0.19 -0.892,0.095 -1.785,0.183 -2.678,0.27 -0.905,0.088 -1.81,0.196 -2.717,0.249 -1.767,0.104 -3.535,0.173 -5.303,0.259 -2.474,0.121 -4.949,0.244 -7.423,0.367 -1.237,0.063 -2.474,0.141 -3.711,0.188 -0.807,0.03 -1.612,0.131 -2.423,0.058 -0.352,-0.032 -0.708,-0.027 -1.061,-0.037 -0.189,-0.005 -0.379,0.012 -0.546,0.108 -0.087,0.051 -0.136,0.099 -0.044,0.23 0.157,0.225 0.349,0.387 0.583,0.512" fill="#ffffff" stroke="#5e97ff" stroke-width="0.0"/>
  <path d="M21.288,73.536c0.018,-0.163 -0.052,-0.221 -0.217,-0.22 -0.771,0.007 -1.541,0.003 -2.335,0.003 0.101,0.347 0.22,0.641 0.267,0.945 0.078,0.512 0.13,1.029 0.157,1.546 0.188,3.549 0.126,7.101 0.051,10.651a167.478,167.478 0,0 1,-0.243 6.136c-0.097,1.679 -0.057,3.358 0.206,5.028 0.113,0.721 0.289,1.41 0.614,2.062 0.071,0.143 0.126,0.342 0.324,0.309 0.147,-0.025 0.21,-0.197 0.271,-0.335 0.194,-0.435 0.304,-0.894 0.396,-1.357 0.215,-1.08 0.307,-2.177 0.358,-3.274 0.11,-2.335 0.161,-4.672 0.192,-7.01 0.063,-4.79 -0.029,-9.58 -0.041,-14.37 0,-0.039 -0.004,-0.077 0,-0.114" fill="#ffffff" stroke="#5e97ff" stroke-width="0.0"/>
  <path d="M38.485,52.445c0.625,-0.621 1.247,-1.245 1.799,-1.937a18.688,18.688 0,0 0,2.132 -3.386,21.985 21.985,0 0,0 1.483,-3.932c0.203,-0.738 0.393,-1.481 0.482,-2.245 0.046,-0.395 -0.074,-0.539 -0.46,-0.542 -0.506,-0.004 -1.011,-0.002 -1.516,0 -0.237,0.001 -0.374,0.106 -0.375,0.339 -0.002,0.315 -0.083,0.622 -0.158,0.912 -0.145,0.562 -0.27,1.131 -0.455,1.685 -0.357,1.072 -0.728,2.138 -1.218,3.16 -0.397,0.83 -0.794,1.666 -1.295,2.435 -0.568,0.873 -1.139,1.75 -1.812,2.552 -0.282,0.335 -0.529,0.701 -0.827,1.02 -0.206,0.219 -0.409,0.437 -0.606,0.664 -0.362,0.416 -0.741,0.817 -1.186,1.156 -0.306,0.232 -0.606,0.486 -0.849,0.898 0.478,-0.145 0.882,-0.23 1.256,-0.389a10.32,10.32 0,0 0,1.551 -0.805c0.731,-0.468 1.436,-0.97 2.054,-1.585" fill="#ffffff" stroke="#5e97ff" stroke-width="0.0"/>
  <path d="M35.353,72.308c-0.642,0.003 -1.284,0.001 -1.94,0.001 0.013,0.23 0.029,0.428 0.036,0.625 0.046,1.29 -0.02,2.577 -0.081,3.865a65.905,65.905 0,0 1,-0.421 5.096c-0.114,0.899 -0.249,1.805 -0.119,2.718 0.037,0.263 0.086,0.525 0.1,0.789 0.03,0.599 0.263,1.124 0.571,1.619 0.158,0.253 0.392,0.416 0.712,0.415 0.108,-0.001 0.194,0.002 0.226,-0.134 0.022,-0.095 0.09,-0.179 0.117,-0.273 0.174,-0.604 0.306,-1.218 0.394,-1.841 0.256,-1.816 0.362,-3.646 0.444,-5.476 0.092,-2.058 0.113,-4.118 0.111,-6.179 0,-0.354 -0.005,-0.707 -0.003,-1.062 0,-0.103 -0.026,-0.164 -0.147,-0.163" fill="#ffffff" stroke="#5e97ff" stroke-width="0.0"/>
  <path d="M42.872,80.853c-0.254,-0.1 -0.504,-0.21 -0.755,-0.316 -0.838,-0.354 -1.696,-0.628 -2.618,-0.638 -0.25,0.002 -0.504,-0.03 -0.749,0.063 -0.21,0.081 -0.26,0.148 -0.225,0.361 0.022,0.138 0.074,0.26 0.174,0.368 0.123,0.134 0.28,0.196 0.433,0.277 0.596,0.315 1.218,0.596 1.774,0.972 0.36,0.243 0.731,0.502 1.015,0.854 0.174,0.217 0.407,0.373 0.649,0.505 0.427,0.231 0.875,0.118 1.097,-0.289 0.404,-0.744 -0.005,-1.848 -0.795,-2.157" fill="#ffffff" stroke="#5e97ff" stroke-width="0.0"/>
  <path d="M38.894,75.721c0.008,0.007 0.025,0.003 0.036,0.007 0.341,0.127 0.668,0.286 1,0.435 0.479,0.214 0.929,0.472 1.358,0.772 0.246,0.173 0.443,0.418 0.722,0.532 0.471,0.192 0.894,0.187 1.07,-0.442 0.15,-0.537 -0.278,-1.394 -0.847,-1.542 -0.252,-0.065 -0.491,-0.184 -0.743,-0.255 -0.614,-0.175 -1.228,-0.36 -1.879,-0.335 -0.202,0.01 -0.408,-0.001 -0.604,0.037 -0.186,0.035 -0.447,0.054 -0.466,0.292 -0.017,0.219 0.189,0.362 0.353,0.499" fill="#ffffff" stroke="#5e97ff" stroke-width="0.0"/>
  <path d="M30.048,75.508c-0.13,-0.038 -0.254,-0.096 -0.384,-0.136 -0.752,-0.232 -1.494,-0.513 -2.303,-0.474 -0.246,0.029 -0.498,-0.026 -0.744,0.076 -0.224,0.094 -0.297,0.189 -0.231,0.413 0.049,0.165 0.158,0.27 0.321,0.335 0.211,0.086 0.411,0.199 0.623,0.285 0.692,0.279 1.35,0.616 1.928,1.097 0.189,0.158 0.382,0.312 0.617,0.406 0.412,0.166 0.719,0.034 0.914,-0.357 0.236,-0.477 -0.114,-1.461 -0.741,-1.645" fill="#ffffff" stroke="#5e97ff" stroke-width="0.0"/>
  <path d="M29.778,80.253c-0.787,-0.255 -1.563,-0.548 -2.409,-0.551 -0.264,0.021 -0.529,0.03 -0.791,0.065 -0.245,0.032 -0.305,0.136 -0.287,0.377 0.021,0.275 0.234,0.367 0.435,0.445 0.44,0.173 0.867,0.369 1.289,0.584 0.429,0.22 0.83,0.478 1.204,0.776 0.177,0.143 0.368,0.248 0.565,0.357 0.413,0.23 0.891,0.01 0.981,-0.489 0.076,-0.414 -0.021,-0.8 -0.306,-1.125a1.457,1.457 0,0 0,-0.681 -0.439" fill="#ffffff" stroke="#5e97ff" stroke-width="0.0"/>
  <path d="M48.509,90.602c-0.058,-0.013 -0.076,0.076 -0.104,0.127 -0.005,0.009 0,0.023 0,0.035l0.138,-0.006c0.019,-0.061 0.019,-0.145 -0.034,-0.156" fill="#ffffff" stroke="#5e97ff" stroke-width="0.0"/>
  <path d="M59.898,21.889a10.398,10.398 0,0 0,-3.511 -1.641c-0.689,-0.173 -1.307,-0.04 -1.864,0.396 -0.058,0.045 -0.105,0.101 -0.183,0.128 -0.402,0.144 -0.798,0.308 -1.202,0.444a28.327,28.327 0,0 1,-6.219 1.328c-0.554,0.056 -1.112,0.081 -1.66,-0.052 -0.255,-0.062 -0.504,-0.148 -0.753,-0.229 -0.637,-0.207 -1.308,-0.302 -1.921,-0.586a0.65,0.65 0,0 0,-0.335 -0.04c-0.158,0.014 -0.319,0.003 -0.381,0.221 -0.06,0.208 -0.135,0.404 0.016,0.6 0.389,0.502 0.687,1.052 0.892,1.653 0.432,1.267 0.613,2.579 0.669,3.908 0.068,1.593 -0.003,3.184 -0.127,4.773a54.383,54.383 0,0 1,-0.798 5.854c-0.063,0.333 -0.001,0.295 -0.354,0.299 -1.977,0.02 -3.94,-0.138 -5.888,-0.468a34.287,34.287 0,0 1,-11.188 -3.958,28.042 28.042,0 0,1 -3.232,-2.114c-0.163,-0.123 -0.249,-0.254 -0.25,-0.471 -0.004,-0.441 -0.062,-0.883 -0.065,-1.325 -0.014,-1.694 -0.012,-3.388 -0.026,-5.082 -0.001,-0.191 0.081,-0.297 0.216,-0.406a24.61,24.61 0,0 1,2.753 -1.878c2.649,-1.584 5.426,-2.913 8.261,-4.125 0.51,-0.219 1.029,-0.427 1.576,-0.53 0.76,-0.143 1.467,-0.456 2.209,-0.659 0.617,-0.168 0.894,-0.624 0.872,-1.257a2.05,2.05 0,0 0,-0.075 -0.485c-0.159,-0.568 -0.442,-1.073 -0.784,-1.546 -0.828,-1.147 -1.927,-1.953 -3.213,-2.518 -0.083,-0.037 -0.165,-0.12 -0.286,-0.064 -0.141,0.753 -0.469,1.433 -0.868,2.081a15.09,15.09 0,0 1,-2.868 3.415c-2.384,2.101 -4.951,3.963 -7.604,5.708 -0.051,0.034 -0.097,0.085 -0.186,0.028v-1.727c-0.006,-2.655 -0.025,-5.31 0.237,-7.957 0.104,-1.058 0.216,-2.111 0.739,-3.07 0.125,-0.229 0.124,-0.484 0.045,-0.738a1.908,1.908 0,0 0,-0.733 -1.031A10.726,10.726 0,0 0,19.85 7.67c-0.343,-0.146 -0.699,-0.261 -1.081,-0.274 -0.166,-0.006 -0.298,0.069 -0.309,0.205 -0.019,0.24 -0.056,0.48 0.035,0.729 0.224,0.619 0.459,1.239 0.608,1.878 0.262,1.123 0.295,2.279 0.369,3.425 0.14,2.171 0.115,4.346 0.109,6.521 -0.004,1.782 -0.109,3.563 -0.069,5.346 0.02,0.91 0.029,1.82 0.038,2.73 0.023,2.503 0.083,5.006 0.056,7.509 -0.028,2.592 -0.078,5.182 0.041,7.773 0.034,0.728 0.058,1.456 0.086,2.178 0.099,0.029 0.135,-0.039 0.167,-0.083 0.201,-0.271 0.405,-0.54 0.572,-0.837 0.516,-0.921 0.843,-1.91 1.067,-2.935 0.379,-1.729 0.434,-3.481 0.339,-5.242l-0.177,-3.256 0.135,-0.004c0.59,0.522 1.267,0.923 1.916,1.363 0.649,0.44 1.346,0.8 2.031,1.18 0.723,0.4 1.485,0.711 2.229,1.061 0.433,0.204 0.892,0.354 1.343,0.519 0.544,0.198 1.083,0.416 1.641,0.568 0.369,0.102 0.748,0.199 1.106,0.317 0.586,0.194 1.208,0.225 1.779,0.446 0.229,0.089 0.46,0.064 0.688,0.115 1.556,0.341 3.13,0.569 4.715,0.714 1.347,0.124 2.698,0.174 4.052,0.154 0.948,-0.013 1.896,0.037 2.843,0.052 1.447,0.023 2.9,0.281 4.344,-0.045 0.195,-0.044 0.243,0.057 0.269,0.211 0.035,0.211 0.077,0.422 0.11,0.634 0.043,0.28 0.226,0.475 0.499,0.507 0.251,0.03 0.503,0.043 0.756,0.016 0.323,-0.035 0.551,-0.211 0.627,-0.531 0.091,-0.378 0.159,-0.761 0.24,-1.142a0.502,0.502 0,0 0,-0.051 -0.388c-0.149,-0.26 -0.054,-0.431 0.24,-0.51 0.199,-0.054 0.308,-0.181 0.314,-0.375 0.012,-0.354 0.015,-0.708 0.001,-1.062 -0.011,-0.251 -0.158,-0.399 -0.408,-0.401 -0.871,-0.008 -1.744,-0.007 -2.616,0.001 -0.258,0.002 -0.342,0.086 -0.352,0.333a16.11,16.11 0,0 0,-0.005 1.099c0.007,0.249 0.098,0.352 0.363,0.401 0.171,0.032 0.239,0.119 0.282,0.266 -0.112,0.042 -0.197,0.007 -0.284,-0.004 -0.425,-0.054 -0.842,-0.183 -1.273,-0.169 -0.833,0.027 -1.667,0.072 -2.5,0.104 -0.628,0.024 -1.257,0.041 -1.881,0.061 -0.071,-0.137 -0.029,-0.264 -0.014,-0.385 0.211,-1.691 0.426,-3.383 0.638,-5.074 0.044,-0.35 -0.122,-0.542 -0.483,-0.556 -0.164,-0.006 -0.328,0.001 -0.493,0.004 -0.075,0.001 -0.164,0.017 -0.204,-0.059a0.678,0.678 0,0 1,-0.045 -0.551c0.048,-0.136 0.208,-0.165 0.338,-0.174 0.214,-0.015 0.43,-0.004 0.645,-0.004 0.654,0 0.654,0 0.652,-0.646 -0.001,-0.28 -0.001,-0.283 0.291,-0.271 0.745,0.031 1.49,0.066 2.234,0.096 0.146,0.006 0.282,0.031 0.413,-0.109 0.112,-0.122 0.338,-0.104 0.448,-0.016 0.15,0.12 0.302,0.108 0.46,0.121 0.239,0.02 0.479,0.027 0.719,0.048 0.156,0.013 0.334,0.183 0.349,0.316 0.015,0.133 -0.106,0.26 -0.298,0.31 -0.268,0.071 -0.352,0.167 -0.359,0.45 -0.009,0.316 -0.008,0.632 -0.001,0.948 0.009,0.385 0.061,0.443 0.436,0.445 0.822,0.006 1.644,0.005 2.465,0 0.341,-0.002 0.478,-0.14 0.486,-0.48a19.5,19.5 0,0 0,0 -0.872c-0.006,-0.333 -0.058,-0.408 -0.396,-0.489 -0.176,-0.042 -0.227,-0.139 -0.214,-0.295 0.006,-0.085 -0.005,-0.175 0.066,-0.248 0.077,-0.08 0.073,-0.173 0.05,-0.28a22.032,22.032 0,0 1,-0.247 -1.217,0.536 0.536,0 0,0 -0.34,-0.421 1.466,1.466 0,0 0,-1.333 0.052,0.38 0.38,0 0,0 -0.21,0.246c-0.085,0.336 -0.086,0.336 -0.411,0.343 -0.114,0.002 -0.229,0.006 -0.342,0.011 -0.308,0.011 -0.628,-0.038 -0.897,0.166 -0.141,0.107 -0.333,0.121 -0.411,0.012 -0.146,-0.206 -0.318,-0.152 -0.5,-0.144l-2.385,0.104 -0.085,-0.062c-0.11,-2.06 -0.043,-4.118 0.083,-6.175 0.009,-0.148 0.073,-0.188 0.208,-0.205 0.564,-0.068 1.127,-0.151 1.692,-0.218 1.441,-0.171 2.884,-0.346 4.328,-0.502 0.766,-0.083 1.534,-0.164 2.305,-0.167 0.402,-0.001 0.725,0.212 0.909,0.547 0.332,0.605 0.536,1.26 0.573,1.958 0.006,0.113 0.023,0.226 0.038,0.338 0.156,1.179 0.294,2.358 0.27,3.55 -0.033,1.58 0.008,3.16 0.029,4.74 0.033,2.502 0.106,5.005 0.088,7.508 -0.037,5.069 -0.131,10.137 -0.148,15.206 -0.009,2.414 -0.03,4.828 -0.047,7.243 -0.011,0.033 -0.009,0.065 0.032,0.07 0.012,0.002 0.028,-0.024 0.043,-0.038 0.124,-0.041 0.209,-0.136 0.301,-0.222 0.38,-0.356 0.657,-0.79 0.896,-1.245 0.577,-1.102 0.91,-2.287 1.159,-3.499 0.321,-1.563 0.456,-3.149 0.514,-4.742 0.082,-2.263 -0.032,-4.525 -0.075,-6.787 -0.059,-3.122 -0.151,-6.243 -0.204,-9.365 -0.041,-2.49 -0.039,-4.98 -0.067,-7.471 -0.012,-1.05 -0.006,-2.099 0.127,-3.142 0.117,-0.91 0.252,-1.814 0.587,-2.679 0.156,-0.402 0.37,-0.75 0.677,-1.053 0.309,-0.305 0.448,-0.679 0.298,-1.102a1.654,1.654 0,0 0,-0.594 -0.806" fill="#ffffff" stroke="#5e97ff" stroke-width="0.0"/>
  <path d="M0.087,39.5l-0.048,-0.047c-0.014,0.02 -0.043,0.05 -0.038,0.058 0.032,0.052 0.06,0.015 0.086,-0.011" fill="#ffffff" stroke="#5e97ff" stroke-width="0.0"/>
  <path d="M0.151,39.401l-0.006,-0.006 0.001,0.007 0.005,-0.001" fill="#ffffff" stroke="#5e97ff" stroke-width="0.0"/>
  <path d="M0.087,39.5c0.039,-0.022 0.07,-0.049 0.059,-0.099 -0.048,-0.011 -0.081,0.013 -0.106,0.051l0.047,0.048" fill="#ffffff" stroke="#5e97ff" stroke-width="0.0"/>
  <path d="M66.813,58.28l-0.576,-4.014h-0.061l-1.621,3.294 -1.633,-3.294h-0.062l-0.57,4.014h0.386l0.391,-2.896 1.438,2.896h0.1l1.42,-2.874 0.392,2.874h0.396z" fill="#ffffff" stroke="#5e97ff" stroke-width="0.0"/>
  <path d="M70.607,54.441a2.172,2.172 0,0 0,-1.082 -0.276,2.077 2.077,0 0,0 -1.812,1.05c-0.187,0.328 -0.28,0.687 -0.28,1.074a2.07,2.07 0,0 0,1.057 1.814c0.328,0.185 0.684,0.277 1.067,0.277 0.381,0 0.733,-0.094 1.06,-0.279a2.1,2.1 0,0 0,1.049 -1.83c0,-0.384 -0.095,-0.738 -0.282,-1.064a2.028,2.028 0,0 0,-0.777 -0.766m0.145,3.062a1.66,1.66 0,0 1,-1.21 0.486c-0.463,0 -0.859,-0.166 -1.191,-0.497a1.636,1.636 0,0 1,-0.497 -1.202c0,-0.488 0.161,-0.899 0.483,-1.233a1.61,1.61 0,0 1,1.205 -0.5c0.47,0 0.871,0.166 1.205,0.497 0.333,0.332 0.5,0.738 0.5,1.219 0,0.496 -0.165,0.906 -0.495,1.23" fill="#ffffff" stroke="#5e97ff" stroke-width="0.0"/>
  <path d="M76.246,57.333c0.187,-0.326 0.279,-0.68 0.279,-1.061 0,-0.384 -0.095,-0.738 -0.282,-1.064a2.023,2.023 0,0 0,-0.777 -0.767,2.17 2.17,0 0,0 -1.082,-0.276 2.08,2.08 0,0 0,-1.812 1.051,2.126 2.126,0 0,0 -0.279,1.073c0,0.376 0.094,0.727 0.282,1.051s0.446,0.578 0.774,0.763 0.684,0.277 1.068,0.277c0.38,0 0.733,-0.094 1.059,-0.279 0.328,-0.186 0.584,-0.442 0.77,-0.768m-1.846,0.656c-0.462,0 -0.858,-0.166 -1.19,-0.497a1.637,1.637 0,0 1,-0.498 -1.202c0,-0.488 0.162,-0.899 0.484,-1.233 0.322,-0.333 0.724,-0.5 1.204,-0.5 0.47,0 0.872,0.166 1.205,0.497 0.334,0.332 0.501,0.738 0.501,1.219 0,0.496 -0.165,0.906 -0.495,1.23s-0.733,0.486 -1.211,0.486" fill="#ffffff" stroke="#5e97ff" stroke-width="0.0"/>
  <path d="M80.484,54.266h-0.397v3.075l-2.667,-3.075h-0.089v4.014h0.413v-3.036l2.651,3.036h0.089v-4.014z" fill="#ffffff" stroke="#5e97ff" stroke-width="0.0"/>
  <path d="M84.602,57.35a2.17,2.17 0,0 0,0.243 -1.026c0,-0.32 -0.052,-0.611 -0.156,-0.872s-0.254,-0.481 -0.447,-0.663c-0.193,-0.181 -0.424,-0.313 -0.69,-0.396s-0.686,-0.126 -1.255,-0.126h-0.834v4.015h1.28c0.522,0 0.922,-0.078 1.2,-0.235a1.69,1.69 0,0 0,0.659 -0.697m-1.236,0.477c-0.218,0.049 -0.569,0.073 -1.054,0.073h-0.465v-3.243h0.286c0.48,0 0.845,0.025 1.093,0.075a1.443,1.443 0,0 1,1.069 0.848c0.098,0.223 0.147,0.473 0.147,0.749 0,0.253 -0.043,0.482 -0.129,0.688 -0.085,0.205 -0.21,0.379 -0.374,0.522s-0.355,0.239 -0.573,0.288" fill="#ffffff" stroke="#5e97ff" stroke-width="0.0"/>
  <path d="M87.719,58.28h0.497l-1.447,-1.867c0.443,0.015 0.786,-0.076 1.028,-0.271 0.243,-0.195 0.363,-0.465 0.363,-0.808 0,-0.172 -0.033,-0.328 -0.1,-0.47a0.924,0.924 0,0 0,-0.277 -0.347c-0.118,-0.09 -0.258,-0.154 -0.422,-0.193s-0.47,-0.059 -0.917,-0.059h-0.8v4.015h0.402v-1.867h0.229l1.444,1.867zM86.047,54.657h0.71c0.336,0 0.584,0.054 0.744,0.162s0.24,0.279 0.24,0.515c0,0.242 -0.081,0.418 -0.243,0.528 -0.162,0.109 -0.415,0.163 -0.757,0.159h-0.694v-1.364z" fill="#ffffff" stroke="#5e97ff" stroke-width="0.0"/>
  <path d="M92.796,57.333c0.187,-0.326 0.279,-0.68 0.279,-1.061 0,-0.384 -0.094,-0.738 -0.282,-1.064s-0.447,-0.582 -0.777,-0.767a2.17,2.17 0,0 0,-1.082 -0.276,2.083 2.083,0 0,0 -1.812,1.051 2.136,2.136 0,0 0,-0.279 1.073c0,0.376 0.094,0.727 0.282,1.051s0.446,0.578 0.774,0.763 0.684,0.277 1.068,0.277c0.38,0 0.733,-0.094 1.06,-0.279 0.327,-0.186 0.582,-0.442 0.769,-0.768m-1.846,0.656c-0.462,0 -0.858,-0.166 -1.19,-0.497a1.637,1.637 0,0 1,-0.498 -1.202c0,-0.488 0.161,-0.899 0.484,-1.233 0.322,-0.333 0.724,-0.5 1.204,-0.5 0.47,0 0.872,0.166 1.205,0.497 0.334,0.332 0.501,0.738 0.501,1.219 0,0.496 -0.165,0.906 -0.495,1.23s-0.733,0.486 -1.211,0.486" fill="#ffffff" stroke="#5e97ff" stroke-width="0.0"/>
  <path d="M96.385,55.334c0,-0.172 -0.033,-0.327 -0.101,-0.467a0.937,0.937 0,0 0,-0.282 -0.35,1.094 1.094,0 0,0 -0.399,-0.196c-0.146,-0.037 -0.455,-0.056 -0.928,-0.056h-0.8v4.015h0.402v-1.867h0.285c0.466,0 0.812,-0.023 1.037,-0.07a0.974,0.974 0,0 0,0.562 -0.332c0.15,-0.176 0.224,-0.402 0.224,-0.677m-0.62,0.494c-0.135,0.141 -0.404,0.206 -0.811,0.198h-0.677v-1.369h0.71c0.652,0 0.979,0.226 0.979,0.677a0.696,0.696 0,0 1,-0.201 0.494" fill="#ffffff" stroke="#5e97ff" stroke-width="0.0"/>
  <path d="M62.003,60.01h0.578v2.324h0.262L62.843,60.01h0.574v-0.252h-1.414v0.252z" fill="#ffffff" stroke="#5e97ff" stroke-width="0.0"/>
  <path d="M65.331,60.655a0.955,0.955 0,0 0,-0.698 -0.276c-0.274,0 -0.506,0.1 -0.694,0.298a1.005,1.005 0,0 0,-0.281 0.718,1 1,0 0,0 0.279,0.708 0.94,0.94 0,0 0,0.711 0.296c0.401,0 0.706,-0.19 0.911,-0.574l-0.208,-0.107c-0.16,0.304 -0.401,0.456 -0.725,0.456a0.674,0.674 0,0 1,-0.5 -0.21,0.796 0.796,0 0,1 -0.218,-0.555h1.715c-0.007,-0.318 -0.104,-0.57 -0.292,-0.754m-0.694,-0.039c0.175,0 0.329,0.051 0.463,0.154a0.667,0.667 0,0 1,0.251 0.427h-1.417c0.11,-0.387 0.343,-0.581 0.703,-0.581" fill="#ffffff" stroke="#5e97ff" stroke-width="0.0"/>
  <path d="M67.188,60.612c0.292,0 0.521,0.111 0.688,0.334l0.194,-0.122a0.858,0.858 0,0 0,-0.36 -0.326,1.121 1.121,0 0,0 -0.512,-0.119c-0.313,0 -0.57,0.101 -0.77,0.3 -0.2,0.199 -0.3,0.44 -0.3,0.723 0,0.277 0.1,0.514 0.296,0.707 0.197,0.193 0.443,0.29 0.737,0.29 0.188,0 0.361,-0.036 0.522,-0.11s0.29,-0.181 0.386,-0.32l-0.194,-0.129a0.843,0.843 0,0 1,-0.688 0.334,0.781 0.781,0 0,1 -0.581,-0.233c-0.153,-0.155 -0.229,-0.342 -0.229,-0.56s0.077,-0.399 0.232,-0.547a0.81,0.81 0,0 1,0.579 -0.222" fill="#ffffff" stroke="#5e97ff" stroke-width="0.0"/>
  <path d="M69.749,60.496a0.675,0.675 0,0 0,-0.388 -0.117c-0.279,0 -0.518,0.13 -0.714,0.392v-1.077h-0.247v2.641h0.247v-0.699c0,-0.261 0.011,-0.435 0.032,-0.521s0.063,-0.17 0.126,-0.251 0.138,-0.145 0.226,-0.19a0.611,0.611 0,0 1,0.525 -0.015,0.398 0.398,0 0,1 0.163,0.152 0.595,0.595 0,0 1,0.08 0.212c0.012,0.074 0.018,0.209 0.018,0.405v0.907h0.247v-0.979c0,-0.243 -0.023,-0.429 -0.071,-0.554a0.627,0.627 0,0 0,-0.244 -0.306" fill="#ffffff" stroke="#5e97ff" stroke-width="0.0"/>
  <path d="M71.938,60.496a0.672,0.672 0,0 0,-0.388 -0.117c-0.279,0 -0.518,0.13 -0.713,0.392v-0.341h-0.248v1.904h0.248v-0.699c0,-0.261 0.01,-0.435 0.031,-0.521 0.022,-0.086 0.063,-0.17 0.126,-0.251s0.138,-0.145 0.226,-0.19a0.614,0.614 0,0 1,0.506 -0.024c0.065,0.028 0.118,0.07 0.16,0.125a0.575,0.575 0,0 1,0.094 0.201c0.02,0.079 0.03,0.229 0.03,0.452v0.907h0.244v-0.979c0,-0.243 -0.024,-0.429 -0.072,-0.554a0.629,0.629 0,0 0,-0.244 -0.305" fill="#ffffff" stroke="#5e97ff" stroke-width="0.0"/>
  <path d="M73.682,60.379c-0.278,0 -0.513,0.1 -0.705,0.298s-0.289,0.438 -0.289,0.718c0,0.275 0.096,0.511 0.287,0.708s0.427,0.296 0.707,0.296a0.942,0.942 0,0 0,0.705 -0.296,0.988 0.988,0 0,0 0.285,-0.708c0,-0.28 -0.097,-0.52 -0.289,-0.718s-0.427,-0.298 -0.701,-0.298m0.525,1.562a0.706,0.706 0,0 1,-0.525 0.224,0.696 0.696,0 0,1 -0.531,-0.222 0.757,0.757 0,0 1,-0.212 -0.545,0.77 0.77,0 0,1 0.219,-0.548 0.698,0.698 0,0 1,0.524 -0.231c0.2,0 0.375,0.077 0.521,0.231a0.768,0.768 0,0 1,0.221 0.548,0.75 0.75,0 0,1 -0.217,0.543" fill="#ffffff" stroke="#5e97ff" stroke-width="0.0"/>
  <path d="M75.335,59.693v2.641h-0.243v-2.641h0.243z" fill="#ffffff" stroke="#5e97ff" stroke-width="0.0"/>
  <path d="M76.749,60.379c-0.278,0 -0.513,0.1 -0.705,0.298a0.992,0.992 0,0 0,-0.289 0.718c0,0.275 0.096,0.511 0.287,0.708s0.427,0.296 0.707,0.296a0.939,0.939 0,0 0,0.704 -0.296,0.984 0.984,0 0,0 0.285,-0.708c0,-0.28 -0.096,-0.52 -0.288,-0.718s-0.427,-0.298 -0.701,-0.298m0.525,1.562a0.706,0.706 0,0 1,-0.525 0.224,0.696 0.696,0 0,1 -0.531,-0.222 0.757,0.757 0,0 1,-0.212 -0.545,0.77 0.77,0 0,1 0.219,-0.548 0.698,0.698 0,0 1,0.524 -0.231c0.2,0 0.375,0.077 0.521,0.231s0.221,0.337 0.221,0.548a0.75,0.75 0,0 1,-0.217 0.543" fill="#ffffff" stroke="#5e97ff" stroke-width="0.0"/>
  <path d="M79.862,60.76c-0.21,-0.254 -0.462,-0.381 -0.757,-0.381 -0.263,0 -0.492,0.096 -0.688,0.287s-0.295,0.42 -0.295,0.686c0,0.256 0.093,0.479 0.276,0.667a0.927,0.927 0,0 0,0.692 0.283c0.148,0 0.29,-0.029 0.424,-0.09 0.134,-0.06 0.25,-0.15 0.348,-0.272v0.083c0,0.205 -0.024,0.356 -0.073,0.453a0.556,0.556 0,0 1,-0.251 0.239,0.892 0.892,0 0,1 -0.418,0.093c-0.333,0 -0.568,-0.124 -0.707,-0.373h-0.266c0.158,0.397 0.486,0.596 0.983,0.596 0.146,0 0.279,-0.021 0.401,-0.064s0.227,-0.105 0.313,-0.187a0.8,0.8 0,0 0,0.197 -0.305c0.045,-0.122 0.068,-0.313 0.068,-0.574L80.109,60.43h-0.248v0.33zM79.664,61.871a0.746,0.746 0,0 1,-0.54 0.201,0.74 0.74,0 0,1 -0.542,-0.206 0.668,0.668 0,0 1,-0.212 -0.497c0,-0.198 0.073,-0.374 0.219,-0.525a0.73,0.73 0,0 1,0.549 -0.228c0.208,0 0.383,0.07 0.524,0.212a0.71,0.71 0,0 1,0.211 0.523,0.686 0.686,0 0,1 -0.209,0.52" fill="#ffffff" stroke="#5e97ff" stroke-width="0.0"/>
  <path d="M81.319,61.896l-0.656,-1.466h-0.259l0.783,1.76 -0.367,0.84h0.259l1.138,-2.6h-0.263l-0.635,1.466z" fill="#ffffff" stroke="#5e97ff" stroke-width="0.0"/>
  <path d="M84.745,59.945c0.376,0 0.684,0.147 0.923,0.444l0.2,-0.154a1.208,1.208 0,0 0,-0.48 -0.401,1.476 1.476,0 0,0 -0.646,-0.141c-0.259,0 -0.495,0.059 -0.709,0.176s-0.382,0.279 -0.502,0.486a1.32,1.32 0,0 0,-0.182 0.677c0,0.395 0.131,0.721 0.392,0.979s0.595,0.387 1.004,0.387c0.234,0 0.449,-0.043 0.643,-0.131 0.194,-0.087 0.354,-0.215 0.48,-0.382l-0.2,-0.154a1.149,1.149 0,0 1,-0.908 0.424c-0.325,0 -0.597,-0.105 -0.813,-0.314a1.048,1.048 0,0 1,-0.325 -0.787c0,-0.309 0.111,-0.57 0.332,-0.786 0.222,-0.216 0.485,-0.323 0.791,-0.323" fill="#ffffff" stroke="#5e97ff" stroke-width="0.0"/>
  <path d="M87.25,60.379c-0.278,0 -0.513,0.1 -0.705,0.298s-0.289,0.438 -0.289,0.718c0,0.275 0.096,0.511 0.287,0.708s0.427,0.295 0.707,0.295c0.279,0 0.515,-0.099 0.705,-0.296s0.285,-0.433 0.285,-0.708c0,-0.28 -0.097,-0.52 -0.289,-0.718s-0.427,-0.297 -0.701,-0.297m0.525,1.562a0.705,0.705 0,0 1,-0.525 0.224c-0.213,0 -0.39,-0.073 -0.531,-0.222s-0.212,-0.33 -0.212,-0.545a0.77,0.77 0,0 1,0.219 -0.548,0.698 0.698,0 0,1 0.524,-0.231c0.2,0 0.375,0.077 0.521,0.231a0.768,0.768 0,0 1,0.221 0.548,0.75 0.75,0 0,1 -0.217,0.543" fill="#ffffff" stroke="#5e97ff" stroke-width="0.0"/>
  <path d="M88.965,61.95a0.21,0.21 0,0 0,-0.151 0.063,0.201 0.201,0 0,0 -0.064,0.151 0.21,0.21 0,0 0,0.064 0.155,0.209 0.209,0 0,0 0.151,0.064c0.06,0 0.11,-0.021 0.152,-0.063a0.21,0.21 0,0 0,0.063 -0.156c0,-0.06 -0.021,-0.11 -0.063,-0.151a0.212,0.212 0,0 0,-0.152 -0.063" fill="#ffffff" stroke="#5e97ff" stroke-width="0.0"/>
  <path d="M89.64,62.561l0.175,0.075 0.355,-0.664 -0.236,-0.111 -0.294,0.7z" fill="#ffffff" stroke="#5e97ff" stroke-width="0.0"/>
  <path d="M90.984,59.758h-0.261v2.576h1.252v-0.247h-0.991v-2.329z" fill="#ffffff" stroke="#5e97ff" stroke-width="0.0"/>
  <path d="M92.804,59.693h-0.248v0.737h-0.337v0.208h0.337v1.696h0.248v-1.696h0.387v-0.208h-0.387v-0.737z" fill="#ffffff" stroke="#5e97ff" stroke-width="0.0"/>
  <path d="M95.218,60.777a0.894,0.894 0,0 0,-0.757 -0.398,0.941 0.941,0 0,0 -0.696,0.296 0.979,0.979 0,0 0,-0.29 0.709c0,0.279 0.095,0.519 0.286,0.717a0.926,0.926 0,0 0,0.693 0.298c0.291,0 0.546,-0.13 0.764,-0.391v0.326h0.24v-2.641h-0.24v1.084zM95.003,61.952a0.737,0.737 0,0 1,-0.524 0.221c-0.208,0 -0.386,-0.078 -0.534,-0.233s-0.223,-0.338 -0.223,-0.549a0.77,0.77 0,0 1,0.217 -0.544,0.714 0.714,0 0,1 0.54,-0.23c0.216,0 0.395,0.075 0.539,0.226 0.143,0.15 0.215,0.335 0.215,0.553a0.746,0.746 0,0 1,-0.23 0.556" fill="#ffffff" stroke="#5e97ff" stroke-width="0.0"/>
  <path d="M96.436,62.014a0.206,0.206 0,0 0,-0.152 -0.063,0.208 0.208,0 0,0 -0.15,0.063 0.201,0.201 0,0 0,-0.064 0.151c0,0.061 0.021,0.112 0.064,0.155s0.094,0.063 0.15,0.063c0.06,0 0.111,-0.021 0.152,-0.063a0.21,0.21 0,0 0,0.063 -0.156,0.202 0.202,0 0,0 -0.063,-0.15" fill="#ffffff" stroke="#5e97ff" stroke-width="0.0"/>
</svg>
