<svg xmlns="http://www.w3.org/2000/svg" width="56.0" height="56.0" viewBox="0 0 1024.0 1024.0">
  <path d="M913.78,719.43c0.34,-5.63 0.43,-11.28 0.28,-16.92 -1.76,0.14 -10.74,-129.99 -12.15,-131.08 -78.59,-60.75 -208.46,-0.23 -176.88,-1.87 -92.01,4.78 -91.06,26.02 -184.48,30.87 -6.96,0.36 1.76,121.07 -5.02,120.63 0.46,6.47 1.24,12.84 2.32,19.1a42.3,42.3 0,0 0,-25.91 41.2c1.21,23.32 21.12,41.24 44.48,40.03a42.04,42.04 0,0 0,14.22 -3.24c36.4,50.51 96.96,82.07 163.81,78.6 67.41,-3.5 124.75,-41.78 155.52,-96.52a42.19,42.19 0,0 0,17.77 2.9c23.35,-1.22 41.3,-21.11 40.08,-44.42 -1.02,-19.75 -15.46,-35.62 -34.03,-39.29" fill="#f9e5e5"/>
  <path d="M573,809.75l3.17,4.4c36.53,50.69 95.56,79.01 157.92,75.76 62.96,-3.27 119.01,-38.05 149.92,-93.04l2.92,-5.19 5.53,2.18a35.48,35.48 0,0 0,14.9 2.43,35.33 35.33,0 0,0 24.55,-11.68 35.13,35.13 0,0 0,9.07 -25.55,35.4 35.4,0 0,0 -28.53,-32.92l-5.86,-1.15 0.36,-5.97c0.31,-5.2 0.41,-10.44 0.29,-15.62 -0.53,-1.97 -0.79,-4.24 -1.04,-6.48a769.59,769.59 0,0 1,-1.65 -16.84c-1.23,-13.74 -2.69,-31.85 -4.1,-49.31 -1.82,-22.58 -3.87,-47.83 -4.79,-55.49 -63.42,-46.67 -160.44,-13.61 -169.7,-3.87 0.58,-0.61 1.52,-2.66 0.72,-5.07a5.86,5.86 0,0 0,-1.98 -2.81l0.67,12.87h-0.02c-45.04,2.35 -66.84,8.53 -89.92,15.09 -22.34,6.34 -45.4,12.89 -90.16,15.54 -1.17,9.38 -0.77,35.1 -0.47,54.52 0.65,42.84 0.36,56.12 -2.26,61.72 0.46,5.28 1.14,10.56 2.03,15.73l0.93,5.39 -5.03,2.1a35.53,35.53 0,0 0,-21.73 34.53c1.02,19.51 17.83,34.59 37.32,33.55a35.18,35.18 0,0 0,11.93 -2.73l4.99,-2.09zM724.43,903.86c-61.43,0 -118.92,-28.44 -156.27,-77.57a48.87,48.87 0,0 1,-11.4 1.95c-26.98,1.38 -50.23,-19.46 -51.64,-46.51a49.28,49.28 0,0 1,25.19 -45.49,201.16 201.16,0 0,1 -1.59,-14.68l-0.56,-7.82 2.66,0.17c0.98,-9.65 0.61,-33.81 0.34,-52.16 -0.93,-60 -0.48,-67.66 9.03,-68.15 46.13,-2.4 68.18,-8.66 91.53,-15.3 21.15,-6.01 42.98,-12.2 83.29,-15a15.93,15.93 0,0 1,3.68 -3.57c21.53,-15.64 122.04,-44.25 187.39,6.27 3.04,2.35 3.04,2.35 7.99,63.66 1.86,23.1 4.3,53.25 5.67,65.52l0.94,-0.07 0.19,7.21c0.1,3.94 0.1,7.92 -0.03,11.89a49.07,49.07 0,0 1,33.77 44.15,48.79 48.79,0 0,1 -12.58,35.45 48.86,48.86 0,0 1,-33.96 16.17,49.78 49.78,0 0,1 -14.98,-1.54c-33.74,56.29 -92.5,91.73 -158.3,95.15 -3.46,0.18 -6.92,0.27 -10.37,0.27z" fill="#3d352d"/>
  <path d="M808.42,717.56a29.8,29.8 0,0 1,25.24 11.66,31.97 31.97,0 0,0 8.02,-13.3l6.9,2.12a39.2,39.2 0,0 1,-11.17 17.56,29.8 29.8,0 0,1 -25.88,41.46 29.79,29.79 0,0 1,-3.1 -59.49m-164.82,7.85a29.81,29.81 0,0 0,-23.89 14.2,32.1 32.1,0 0,1 -9.36,-12.39l-6.63,2.82a39.24,39.24 0,0 0,12.94 16.32,29.81 29.81,0 0,0 30.05,38.54 29.8,29.8 0,0 0,28.23 -31.29,29.81 29.81,0 0,0 -31.33,-28.2m90.94,136.74c-21.77,1.14 -40.4,-15.63 -41.54,-37.38l7.21,-0.38a32.34,32.34 0,0 0,33.95 30.56c17.79,-0.93 31.52,-16.14 30.6,-33.91l7.2,-0.38c1.14,21.74 -15.66,40.35 -37.43,41.48" fill="#322b2c"/>
  <path d="M869.06,793.63c0.22,4.21 -2.33,7.76 -5.69,7.93l-41.15,2.14c-3.36,0.17 -6.26,-3.09 -6.49,-7.3 -0.22,-4.2 2.33,-7.76 5.69,-7.93l41.15,-2.14c3.36,-0.18 6.26,3.09 6.49,7.3m-225.47,14.68c0.22,4.21 -2.33,7.75 -5.69,7.94l-41.15,2.14c-3.36,0.17 -6.26,-3.09 -6.49,-7.3 -0.22,-4.21 2.33,-7.76 5.69,-7.94l41.15,-2.14c3.36,-0.17 6.27,3.1 6.49,7.3" fill="#f3a089"/>
  <path d="M773.27,431.93c2.97,12.77 2.36,19.34 -1.84,19.72 -2.05,0.18 -4.86,-1.33 -8.49,-4.52 -0.89,1.1 -1.78,2.15 -2.7,3.17 -1.15,1.15 -1.89,-1.58 -2.4,-8.16 -4.23,-4.5 -9.23,-10.58 -15.06,-18.22 -1.35,-3.13 -12.53,-23.23 -33.56,-60.35 -20.58,-37.55 -38.49,-67.04 -53.7,-88.5 -49.68,-71.07 -80.57,-78.66 -94.44,-22.8 -6.71,26.39 0,50.07 19.68,69.75 12.09,12.07 35.81,25.91 70.28,43.36 34.91,17.87 58.17,32.18 69.81,42.91 19.24,18.32 24.62,40.68 17.91,65.25 -6.72,-18.32 -20.15,-33.52 -39.84,-45.14 -10.75,-7.16 -30.44,-16.1 -58.19,-27.72 -15.2,-5.36 -39.38,-10.73 -72.04,-14.75 -31.33,-3.58 -54.61,-9.83 -68.03,-16.09 -38.04,-17.43 -57.73,-46.93 -59.97,-89.41 -0.46,-18.32 1.34,-37.09 7.61,-55.88 5.82,-19.21 14.32,-35.76 25.51,-51.41 11.19,-16.53 23.72,-29.05 37.6,-38.43 15.21,-9.84 30.88,-15.64 45.65,-15.2 36.26,-1.35 66.24,23.24 91.3,73.31 11.63,22.35 29.54,55.42 54.16,97.89 25.12,42.7 42.85,75.43 54.08,97.34 -0.2,-35.15 1.14,-56.3 3.64,-63.81 10.75,-36.65 18.8,-60.79 23.72,-71.96 12.08,-27.26 26.85,-47.38 45.2,-59.45 16.56,-11.18 34.01,-15.2 52.37,-11.18 16.55,2.23 31.78,11.18 45.65,25.03 12.98,12.97 23.27,28.61 28.2,46.94 6.26,18.77 6.26,36.65 1.34,53.19 -7.16,20.56 -22.37,38.43 -46.99,53.19l-30.88,16.54c-11.63,7.15 -21.49,13.4 -28.64,21.46 -42.97,64.36 -65.34,84.04 -66.69,60.35 -1.33,-18.33 3.58,-34.87 13.43,-50.07 7.16,-9.84 18.35,-21.01 34.91,-33.97l39.84,-32.63c12.99,-12.97 21.48,-27.72 25.51,-42.47 7.17,-28.6 3.13,-41.57 -11.63,-39.34 -12.53,1.8 -27.74,11.63 -44.75,28.62 -14.32,14.31 -25.96,34.87 -35.36,61.24l-24.17,67.04c-2.65,5.47 -5.29,10.52 -7.99,15.16z" fill="#3d352d"/>
  <path d="M672.51,456.57c3.58,1.79 9.85,2.67 19.25,2.23l28.64,-3.58c12.98,-0.44 25.06,0 34.9,1.8 9.85,1.78 21.04,4.9 32.68,10.27l26.85,12.52c8.5,4.03 14.32,5.36 18.35,4.91 4.92,-1.34 8.06,-5.36 9.39,-12.95 2.7,-16.1 -3.12,-30.85 -18.78,-45.6 -15.22,-14.3 -34.91,-23.24 -58.64,-27.27 -23.72,-4.03 -45.65,-1.79 -64.89,6.71 -18.8,8.04 -29.09,20.12 -32.22,36.65 -1.35,7.59 0.44,12.07 4.47,14.31" fill="#eea220"/>
  <path d="M695.34,452.54c2.24,1.34 7.16,1.79 14.32,1.79l21.92,-1.34c10.3,-0.44 18.81,0.9 26.87,1.79 7.6,2.23 15.66,4.91 25.49,8.49l21.04,9.39c6.27,2.69 11.19,4.03 13.43,3.58 4.04,-0.46 6.27,-2.68 7.17,-8.04 1.33,-11.18 -4.04,-21.9 -16.12,-32.19 -11.18,-10.29 -26.41,-17.44 -45.19,-21.01 -17.92,-3.57 -34.91,-2.67 -49.69,3.13 -13.87,4.91 -21.92,12.96 -23.72,23.69 -0.89,5.36 0.9,8.93 4.48,10.72" fill="#ede54a"/>
  <path d="M928.69,803.99c6.1,3.09 11.53,3.68 16.79,1.44 5.03,-1.38 9.14,-4.41 11.13,-9.89 3.11,-6.1 2.76,-13.15 0.86,-22.97l5.9,22.08c2.76,10.06 3.97,17.35 3.69,23.31 -1.75,16.22 -16.16,22.87 -44.4,19.15 -20.24,-2.41 -31.73,-11.18 -35.24,-25.17 -2.28,-11.78 0.27,-29.17 7.95,-51.62l17.68,-49.83c-4.44,19.19 -7.2,32.35 -7.95,40.02 -1.99,17.08 0.34,30.28 7.04,39.56 4.82,6 9.9,11.13 16.54,13.92zM465.93,601.55c0.33,-2.86 0.72,-5.75 1.16,-8.66 4.47,-27.72 13.43,-53.64 26.85,-76.89 13.86,-24.58 31.32,-42.91 51.01,-54.53 27.31,-16.54 59.08,-26.82 95.33,-30.85 35.8,-4.47 71.16,-2.24 106.07,5.81 36.69,8.94 68.92,23.24 96.22,43.36 28.64,21.47 50.57,47.84 63.55,79.57 3.13,6.71 4.93,16.55 5.82,29.95l1.34,36.21c2.24,29.06 11.64,47.39 29.1,53.2 -28.2,29.05 -55.05,23.69 -79.22,-17.44 -7.61,-12.95 -15.22,-31.28 -23.72,-54.08l-15.66,-42.47c2.68,8.04 -8.05,17.87 -32.22,28.6 -19.68,8.04 -34.91,13.41 -45.21,14.75l-52.36,6.71c-20.59,2.68 -37.15,6.7 -51.03,11.62 -8.49,3.12 -18.78,11.62 -29.53,23.24 -10.74,11.62 -19.69,25.03 -26.85,39.33 -7.61,15.64 -11.65,30.4 -11.19,43.36 -0.46,14.75 4.93,26.37 16.11,33.97 8.51,6.71 19.25,7.6 31.32,1.79 11.2,-4.92 17.91,-12.52 18.8,-22.34 -0.45,9.38 -4.04,18.32 -8.95,26.82 -5.81,8.49 -12.97,14.74 -21.93,19.21 -20.14,9.39 -38.49,7.16 -55.94,-7.6 -9.84,-8.05 -15.66,-17.44 -17.45,-29.06 -1.05,-5.96 -1.01,-14.11 0.14,-23.59 -0.72,2.32 -1.51,4.66 -2.38,7.05 -8.05,23.25 -21.03,43.36 -38.04,61.24 -13.41,14.3 -35.36,21.01 -63.55,18.77 -24.62,-1.34 -47.45,-8.04 -70.27,-19.22 -20.13,-10.27 -39.82,-25.48 -58.17,-47.38l-47.45,-58.11c-13.43,-14.3 -29.98,-25.47 -51.02,-33.08l-58.18,-15.2c-18.79,-5.36 -35.81,-16.09 -49.68,-30.84 -12.53,-14.31 -21.93,-30.85 -28.64,-49.17 4.47,12.52 15.22,25.04 31.77,38 15.67,12.08 31.34,19.67 45.66,24.14 8.06,1.78 22.82,2.23 44.31,1.34 17.91,-0.89 32.23,2.69 44.32,9.39 8.04,5.36 19.23,16.54 33.11,31.29 13.88,15.64 25.51,26.37 34.91,32.18 45.64,29.51 85.93,41.13 120.39,37.11 20.87,-3.09 40.07,-9.19 58.18,-19.43 -1.6,0.69 -3.24,1.35 -4.92,1.99 -17.9,7.15 -37.59,9.83 -58.18,8.93 -21.48,-1.79 -42.07,-7.15 -60.42,-17.44 -11.63,-6.25 -24.62,-16.54 -37.59,-32.17 -16.11,-17.89 -26.85,-29.51 -34.91,-34.87 -12.53,-9.84 -29.98,-16.54 -51.03,-20.57l-54.15,-7.59c-51.92,-7.15 -87.72,-34.87 -107.86,-83.59 -15.67,-38.89 -20.59,-84.04 -13.88,-137.22 3.58,-25.94 12.97,-49.62 28.19,-71.08 7.16,-10.73 14.32,-24.14 21.49,-41.12l16.55,-38c-4.92,12.07 -8.06,26.82 -9.39,44.25 -2.24,21.01 -1.35,41.57 2.22,62.13 8.07,50.06 27.76,82.26 59.08,95.66 15.21,6.26 30.88,6.7 47.88,0.44l43.86,-16.99c34.46,-8.5 64.89,-3.14 90.85,14.76 18.35,12.95 35.81,33.07 52.37,59.44l53,94.94zM540.46,683.62c1.24,5.05 1.92,10.3 2.04,15.75l1.57,-9.92c1.35,-12.96 0.46,-23.69 -4.03,-32.64 2.05,7.88 2.18,16.9 0.42,26.81z" fill="#3d352d"/>
</svg>
