<svg xmlns="http://www.w3.org/2000/svg" width="56" height="56" viewBox="290 300 444 390">
  <path d="M622.58,483.86h-146.84v146.84h146.84v-146.84zM582.74,593.54h-66.26v-72.53h66.26v72.53zM462.31,403.27h175.5v40.74h-175.5z" fill="#e1e6eb"/>
  <path d="M452.01,360.3h209.07v294.14c0,14.33 -6.71,21.94 -20.15,21.94l-51.04,-0.9 10.74,40.74h49.25c35.37,0 53.28,-16.57 53.28,-49.69V320H452.01v40.29zM410.37,404.17l29.1,-29.55c-20.15,-22.38 -44.77,-44.32 -73.87,-66.26l-29.55,29.1c31.79,23.28 56.41,45.66 74.32,66.71zM408.58,624.44v-186.24H306.06v40.74h61.78v164.3c0,8.95 -4.03,17.01 -11.19,23.28l16.12,38.05c28.65,-20.59 55.96,-43.87 81.93,-69.84l-11.19,-45.66c-12.09,12.53 -23.73,24.62 -34.92,35.37z" fill="#e1e6eb"/>
</svg>
