<svg xmlns="http://www.w3.org/2000/svg" width="56.0" height="56.0" viewBox="0 0 24.0 24.0">
  <path d="M6.5,21C7.328,21 8,20.328 8,19.5S7.328,18 6.5,18c-0.386,0 -2.614,0 -3,0C2.672,18 2,18.672 2,19.5S2.672,21 3.5,21C3.886,21 6.114,21 6.5,21z" fill="#e1e6eb"/>
  <path d="M6.5,17C7.328,17 8,16.328 8,15.5S7.328,14 6.5,14c-0.386,0 -2.614,0 -3,0C2.672,14 2,14.672 2,15.5S2.672,17 3.5,17C3.886,17 6.114,17 6.5,17z" fill="#e1e6eb"/>
  <path d="M6.5,13C7.328,13 8,12.328 8,11.5S7.328,10 6.5,10c-0.386,0 -2.614,0 -3,0C2.672,10 2,10.672 2,11.5S2.672,13 3.5,13C3.886,13 6.114,13 6.5,13z" fill="#e1e6eb" fill-opacity="0.35"/>
  <path d="M6.5,9C7.328,9 8,8.328 8,7.5S7.328,6 6.5,6c-0.386,0 -2.614,0 -3,0C2.672,6 2,6.672 2,7.5S2.672,9 3.5,9C3.886,9 6.114,9 6.5,9z" fill="#e1e6eb" fill-opacity="0.35"/>
  <path d="M13.5,21c0.828,0 1.5,-0.672 1.5,-1.5S14.328,18 13.5,18c-0.386,0 -2.614,0 -3,0C9.672,18 9,18.672 9,19.5S9.672,21 10.5,21C10.886,21 13.114,21 13.5,21z" fill="#e1e6eb"/>
  <path d="M13.5,17c0.828,0 1.5,-0.672 1.5,-1.5S14.328,14 13.5,14c-0.386,0 -2.614,0 -3,0C9.672,14 9,14.672 9,15.5S9.672,17 10.5,17C10.886,17 13.114,17 13.5,17z" fill="#e1e6eb"/>
  <path d="M13.5,13c0.828,0 1.5,-0.672 1.5,-1.5S14.328,10 13.5,10c-0.386,0 -2.614,0 -3,0C9.672,10 9,10.672 9,11.5S9.672,13 10.5,13C10.886,13 13.114,13 13.5,13z" fill="#e1e6eb" fill-opacity="0.35"/>
  <path d="M13.5,9C14.328,9 15,8.328 15,7.5S14.328,6 13.5,6c-0.386,0 -2.614,0 -3,0C9.672,6 9,6.672 9,7.5S9.672,9 10.5,9C10.886,9 13.114,9 13.5,9z" fill="#e1e6eb" fill-opacity="0.35"/>
  <path d="M13.5,5C14.328,5 15,4.328 15,3.5S14.328,2 13.5,2c-0.386,0 -2.614,0 -3,0C9.672,2 9,2.672 9,3.5S9.672,5 10.5,5C10.886,5 13.114,5 13.5,5z" fill="#e1e6eb" fill-opacity="0.35"/>
  <path d="M20.5,21c0.828,0 1.5,-0.672 1.5,-1.5S21.328,18 20.5,18c-0.386,0 -2.614,0 -3,0c-0.828,0 -1.5,0.672 -1.5,1.5s0.672,1.5 1.5,1.5C17.886,21 20.114,21 20.5,21z" fill="#e1e6eb"/>
  <path d="M20.5,17c0.828,0 1.5,-0.672 1.5,-1.5S21.328,14 20.5,14c-0.386,0 -2.614,0 -3,0c-0.828,0 -1.5,0.672 -1.5,1.5s0.672,1.5 1.5,1.5C17.886,17 20.114,17 20.5,17z" fill="#e1e6eb"/>
  <path d="M20.5,13c0.828,0 1.5,-0.672 1.5,-1.5S21.328,10 20.5,10c-0.386,0 -2.614,0 -3,0c-0.828,0 -1.5,0.672 -1.5,1.5s0.672,1.5 1.5,1.5C17.886,13 20.114,13 20.5,13z" fill="#e1e6eb" fill-opacity="0.35"/>
</svg>
