<svg xmlns="http://www.w3.org/2000/svg" width="24.0" height="24.0" viewBox="0 0 172.0 172.0">
  <path d="M86,14.33c-3.96,0 -7.17,3.21 -7.17,7.17h-57.33c-3.96,0 -7.17,3.21 -7.17,7.17c0,3.96 3.21,7.17 7.17,7.17v71.67c0,7.92 6.41,14.33 14.33,14.33h32.96l-7.81,19.54c-1.75,4.37 1.47,9.13 6.17,9.13c2.72,0 5.16,-1.66 6.17,-4.19l9.8,-24.48h5.74l9.8,24.48c1.01,2.53 3.45,4.19 6.17,4.19c4.7,0 7.92,-4.75 6.17,-9.13l-7.81,-19.54h32.96c7.92,0 14.33,-6.41 14.33,-14.33v-71.67c3.96,0 7.17,-3.21 7.17,-7.17c0,-3.96 -3.21,-7.17 -7.17,-7.17h-57.33c0,-3.96 -3.21,-7.17 -7.17,-7.17zM123.93,55.23c1.83,0 3.67,0.7 5.07,2.1c2.8,2.8 2.8,7.34 0,10.13l-23.6,23.6c-2.8,2.8 -7.34,2.8 -10.13,0l-16.43,-16.43l-16.43,16.43c-2.8,2.8 -7.34,2.8 -10.13,0l-9.27,-9.27c-2.8,-2.8 -2.8,-7.34 0,-10.13c2.8,-2.8 7.34,-2.8 10.13,0l4.2,4.2l16.43,-16.43c2.8,-2.8 7.34,-2.8 10.13,0l16.43,16.43l18.53,-18.53c1.4,-1.4 3.23,-2.1 5.07,-2.1z" fill="#000000" stroke="#000000" stroke-width="1.0" stroke-opacity="0.000" stroke-linecap="butt" stroke-linejoin="miter" fill-rule="nonzero"/>
</svg>
