<svg xmlns="http://www.w3.org/2000/svg" width="24.0" height="24.0" viewBox="0 0 1000 1000">
<g transform="translate(0.000000,1000.000000) scale(1.000000,-1.000000)" fill="#000000" stroke="none">
<path d="M144 830 c-12 -4 -31 -21 -43 -36 -20 -26 -21 -36 -21 -295 l0 -269
29 -32 29 -33 362 0 362 0 29 33 30 33 -3 226 -3 225 -28 24 c-27 23 -32 24
-205 24 l-177 0 -50 41 c-28 23 -64 48 -82 55 -36 15 -195 18 -229 4z m244
-92 c23 -18 42 -35 42 -39 0 -4 -17 -21 -37 -38 -37 -30 -40 -31 -140 -31
l-103 0 0 64 c0 42 4 66 13 69 6 3 51 6 98 6 81 1 87 0 127 -31z m460 -287 c2
-157 -1 -206 -10 -213 -15 -9 -648 -11 -672 -2 -14 5 -16 29 -16 165 l0 159
108 0 c116 0 127 4 202 69 l35 31 175 -3 175 -2 3 -204z"/>
</g>
</svg>
